<svg width="1200" height="94" xmlns="http://www.w3.org/2000/svg">
 <style type="text/css">.st0{fill:#52AFE2;}</style>

 <g>
  <title>background</title>
  <rect x="-1" y="-1" width="1202" height="96" id="canvas_background" fill="none"/>
 </g>
 <g>
  <title>Layer 1</title>
  <g id="svg_1" stroke="null">
   <path class="st0" d="m67.71939,3.32163c18.12239,0 34.8706,12.44965 38.96156,28.96481l0.46859,1.89069l1.90596,0.51659a24.32465,23.86614 0 0 1 17.66433,22.93112a23.62966,23.18425 0 0 1 -7.071,16.63397a24.21935,23.76282 0 0 1 -17.12729,6.84472l-70.87317,0c-15.85315,0 -28.26293,-11.93306 -28.26293,-27.16193c0,-14.23703 11.09878,-25.90147 25.79887,-27.13611l2.00073,-0.1653l0.80555,-1.80805c5.69155,-12.66661 20.37584,-21.51051 35.7288,-21.51051m0,-3.32163c-16.71661,0 -32.67505,9.81508 -38.8036,23.49936c-16.20064,1.35345 -28.91579,14.2112 -28.91579,30.44224c0,17.15055 14.16832,30.4784 31.64836,30.4784l70.87318,0c15.23186,0 27.57846,-11.84525 27.57846,-26.79a27.68903,27.1671 0 0 0 -20.13365,-26.11844c-4.6122,-18.66414 -23.13473,-31.51156 -42.24696,-31.51156z" id="svg_2" stroke="null"/>
  </g>
  <g stroke="null" id="svg_10">
   <path stroke="null" class="st0" d="m871.090895,15.062539c10.461118,0 20.128993,7.730527 22.490484,17.9855l0.270496,1.17401l1.100211,0.320767a14.04136,14.819513 0 0 1 10.196695,14.238919a13.640178,14.396092 0 0 1 -4.081713,10.328744a13.98057,14.755354 0 0 1 -9.886695,4.250185l-40.911411,0c-9.151201,0 -16.314727,-7.409752 -16.314727,-16.866009c0,-8.840388 6.406756,-16.083336 14.892352,-16.849976l1.15492,-0.102645l0.465005,-1.122683c3.285429,-7.865247 11.76192,-13.356811 20.624381,-13.356811m0,-2.062539c-9.649631,0 -18.861614,6.094602 -22.399311,14.591761c-9.351785,0.840412 -16.691584,8.824346 -16.691584,18.902894c0,10.64952 8.178637,18.925347 18.268963,18.925347l40.911411,0c8.792557,0 15.91961,-7.355224 15.91961,-16.635056a15.983441,16.86922 0 0 0 -11.622103,-16.218065c-2.662394,-11.589366 -13.354487,-19.56688 -24.386987,-19.56688z" id="svg_9"/>
  </g>
  <g stroke="null" id="svg_12">
   <path stroke="null" class="st0" d="m1120.077945,23.314959c6.978719,0 13.428258,4.92854 15.003643,11.466528l0.180441,0.748482l0.733961,0.2045a9.367137,9.448072 0 0 1 6.802328,9.077924a9.099504,9.178124 0 0 1 -2.722958,6.585012a9.326583,9.407173 0 0 1 -6.595512,2.709676l-27.292434,0c-6.104863,0 -10.883719,-4.724032 -10.883719,-10.752798c0,-5.636123 4.274009,-10.253823 9.934842,-10.742589l0.770458,-0.065433l0.310208,-0.715761c2.191743,-5.014437 7.846504,-8.515539 13.758742,-8.515539m0,-1.314959c-6.437369,0 -12.582779,3.885568 -14.942813,9.302873c-6.238673,0.535796 -11.135132,5.625898 -11.135132,12.051409c0,6.789519 5.456051,12.065718 12.187415,12.065718l27.292434,0c5.8656,0 10.620137,-4.689273 10.620137,-10.605568a10.662718,10.754852 0 0 0 -7.753227,-10.339706c-1.776109,-7.388717 -8.908914,-12.474726 -16.268813,-12.474726z" id="svg_11"/>
  </g>
 </g>
</svg>