<?xml version="1.0" encoding="iso-8859-1"?>
<!-- Generator: Adobe Illustrator 19.0.0, SVG Export Plug-In . SVG Version: 6.00 Build 0)  -->
<svg version="1.1" id="Layer_1" xmlns="http://www.w3.org/2000/svg" xmlns:xlink="http://www.w3.org/1999/xlink" x="0px" y="0px"
	 viewBox="0 0 479.997 479.997" style="enable-background:new 0 0 479.997 479.997;" xml:space="preserve">
<g>
	<g>
		<g>
			<path fill="white" d="M303.882,387.949c-27.451,9.424-46.143-9.094-53.929-19.218c0.131-1.269,0.019-2.541-0.323-3.751
				c24.072-4.618,41.152-24.895,41.152-50.742c0-5.522-4.477-10-10-10h-83.482c-5.523,0-10,4.478-10,10
				c0,25.542,16.693,45.634,40.329,50.563c-0.376,1.241-0.513,2.553-0.387,3.861c-2.649,3.418-6.557,7.825-11.601,11.791
				c-12.939,10.173-27.175,12.695-42.316,7.496c-5.224-1.793-10.912,0.988-12.706,6.211c-1.793,5.223,0.987,10.911,6.21,12.705
				c7.28,2.5,14.501,3.742,21.58,3.742c13.984,0,27.405-4.85,39.592-14.432c4.137-3.252,7.675-6.711,10.598-9.949
				c2.923,3.238,6.462,6.697,10.599,9.949c12.189,9.582,25.609,14.432,39.596,14.432c7.078,0,14.302-1.243,21.582-3.742
				c5.224-1.793,8.004-7.482,6.211-12.705C314.794,388.937,309.108,386.156,303.882,387.949z M239.057,345.974
				c-15.142,0.001-26.586-8.557-30.391-21.736h60.752C265.617,337.417,254.184,345.974,239.057,345.974z"/>
			<path fill="white" d="M478.38,363.171c-1.693-72.82-10.413-132.147-25.919-176.353c-12.458-35.516-29.325-61.5-50.131-77.233
				c-25.665-19.407-49.427-17.151-56.3-15.953c-11.706-12.735-25.647-23.439-41.207-31.518l4.372-9.478
				c1.558-3.378,1.112-7.341-1.157-10.289c-2.269-2.947-5.988-4.396-9.65-3.749l-50.581,8.866l3.397-6.79
				c1.933-3.863,1.167-8.53-1.899-11.572c-3.066-3.044-7.739-3.772-11.586-1.811l-71.33,36.37c-0.194,0.1-0.385,0.205-0.573,0.316
				l-9.584,5.705c-0.13,0.077-0.258,0.157-0.384,0.24c-10.17,6.696-19.322,14.466-27.342,23.082
				c-10.284-0.661-29.928,0.768-50.837,16.579c-20.806,15.733-37.673,41.719-50.131,77.233
				C12.031,231.024,3.31,290.352,1.619,363.172c-0.377,2.545-1.569,11.341-1.617,21.167c-0.086,17.718,3.523,29.321,11.034,35.475
				c2.385,1.953,6.695,4.514,12.9,4.514c2.808,0,6.004-0.524,9.584-1.866c21.319-8.008,37.861-51.678,40.96-60.351
				c0.251-0.701,0.422-1.429,0.512-2.168l1.535-12.722c8.471,21.211,21.348,40.695,38.185,57.338
				c32.125,31.752,74.601,49.238,119.605,49.238c44.99,0,87.445-17.487,119.543-49.241c21.798-21.564,36.957-47.899,44.487-76.587
				l6.796,32.805c0.094,0.454,0.219,0.9,0.375,1.337c3.099,8.673,19.641,52.343,40.966,60.354c3.578,1.341,6.771,1.864,9.577,1.864
				c6.204,0,10.516-2.561,12.901-4.515c7.511-6.153,11.12-17.757,11.034-35.475C479.95,374.512,478.758,365.715,478.38,363.171z
				 M64.801,277.418l-9.529,78.998c-7.509,20.554-20.476,44.201-28.778,47.319c-1.585,0.595-2.424,0.621-2.679,0.621
				c-0.055,0-0.082-0.002-0.084,0.002c-0.151-0.127-3.669-3.391-3.73-19.012c-0.04-10.166,1.458-19.615,1.472-19.703
				c0.073-0.453,0.115-0.912,0.126-1.371c3.545-156.517,38.651-215.941,67.476-238.231c8.327-6.439,16.229-9.839,22.887-11.57
				c-13.998,22.184-21.703,47.848-21.703,74.451v3.012C69.811,218.563,65.421,249.469,64.801,277.418z M383.811,281.865
				l-0.003,3.653c0,81.761-67.061,148.278-149.491,148.278c-82.491,0-149.603-66.518-149.603-148.278
				c0-2.213,0.021-4.455,0.065-6.715l4.377-36.29c0.083-0.69,0.093-1.372,0.038-2.039c3.343-13.607,9.072-26.879,18.791-38.704
				c1.47-1.79,2.274-4.034,2.274-6.35v-6.499c0-40.651,21.081-78.829,56.401-102.171l9.104-5.419l44.434-22.657
				c-0.585,2.771,0.025,5.706,1.765,8.041c2.255,3.029,6.027,4.53,9.746,3.876l51.329-8.998l-2.523,5.472
				c-2.313,5.016-0.123,10.956,4.892,13.27c3.257,1.5,6.904,1.104,9.695-0.732c42.343,21.748,68.642,63.624,68.642,109.319v17.505
				c0,2.476,0.918,4.863,2.577,6.7c6.542,7.247,10.639,14.964,13.208,23.161c0.014,0.596,0.074,1.197,0.199,1.801l3.173,15.317
				C383.837,262.386,383.825,271.867,383.811,281.865z M456.346,404.325c-0.008,0.003-0.814,0.171-2.835-0.587
				c-8.362-3.141-21.443-27.074-28.928-47.716l-21.95-105.945c-1.863-16.388-6.645-32.49-18.891-47.363v-13.792
				c0-26.627-7.732-52.715-22.362-75.442c-0.068-0.105-0.141-0.208-0.209-0.313c7.705,0.928,18.328,4.039,29.753,12.874
				c28.825,22.291,63.93,81.716,67.476,238.232c0.011,0.459,0.053,0.918,0.126,1.372c0.015,0.092,1.49,9.321,1.473,19.478
				C459.971,401.168,456.314,404.325,456.346,404.325z"/>
			<path fill="white" d="M166.583,227.972c12.199,0.371,24.029,7.659,35.162,21.663c1.974,2.483,4.89,3.777,7.834,3.777
				c2.181,0,4.377-0.71,6.217-2.172c4.323-3.438,5.042-9.729,1.605-14.051c-15.021-18.895-31.982-28.724-50.41-29.214
				c-28.87-0.784-49.68,22.314-50.55,23.296c-3.652,4.124-3.27,10.409,0.84,14.077c4.11,3.667,10.424,3.308,14.107-0.788
				C131.541,244.389,147.059,227.417,166.583,227.972z"/>
			<path fill="white" d="M299.595,207.976c-28.902-0.789-49.672,22.315-50.543,23.297c-3.662,4.135-3.278,10.455,0.856,14.116
				c4.136,3.662,10.456,3.278,14.116-0.856c0.151-0.171,15.676-17.096,35.04-16.563c12.245,0.324,24.118,7.614,35.292,21.667
				c1.974,2.483,4.89,3.777,7.833,3.776c2.181,0,4.378-0.71,6.217-2.173c4.323-3.436,5.041-9.727,1.604-14.051
				C334.987,218.293,318.023,208.465,299.595,207.976z"/>
		</g>
	</g>
</g>
</svg>
