<?xml version="1.0" standalone="yes"?><svg xmlns="http://www.w3.org/2000/svg" viewBox="0 0 16 16" fill-rule="evenodd" clip-rule="evenodd" stroke-linejoin="round" stroke-miterlimit="1.414" style="zoom: 1;" visibility="visible"><path d="M3.212,11.518 c-.456,0 -.87,-.373 -.87,-.828 c0,-.455 .373,-.828 .87,-.828 c.496,0 .87,.373 .87,.828 c0,.455 -.415,.828 -.87,.828 m10.677,-4.51 c-.09,-.663 -.5,-1.2 -1.04,-1.615 l-.21,-.166 l-.17,.207 c-.33,.373 -.46,1.035 -.42,1.53 c.04,.374 .16,.746 .37,1.036 c-.17,.083 -.38,.166 -.54,.248 c-.38,.124 -.75,.166 -1.12,.166 H.06 l-.04,.248 c-.08,.787 .04,1.614 .375,2.36 l.166,.29 v.04 c1,1.656 2.78,2.4 4.72,2.4 c3.73,0 6.79,-1.613 8.24,-5.09 c.95,.042 1.91,-.207 2.36,-1.117 l.12,-.207 l-.2,-.124 c-.54,-.33 -1.28,-.373 -1.9,-.207 m-5.34,-.663 H6.93 V7.96 h1.62 V6.344 m0,-2.028 H6.93 V5.93 h1.62 V4.318 m0,-2.07 H6.93 V3.86 h1.62 V2.248 m1.98,4.098 H8.92 V7.96 h1.614 V6.344 m-6,0 H2.92 V7.96 h1.614 V6.344 m2.02,0 h-1.6 V7.96 h1.61 V6.344 m-4.02,0 H.93 V7.96 h1.62 V6.344 m4.02,-2.028 h-1.6 V5.93 h1.61 V4.318 m-2.03,0 h-1.6 V5.93 h1.61 V4.318  z " visibility="visible" fill-rule="nonzero" fill="#FFFFFF"></path></svg>